<svg version="1.2" width="768" height="768" viewBox="0 0 20320 20320" preserveAspectRatio="xMidYMid" fill-rule="evenodd" stroke-width="28.222" stroke-linejoin="round" xmlns="http://www.w3.org/2000/svg"><defs class="ClipPathGroup"><clipPath id="a" clipPathUnits="userSpaceOnUse"><path d="M0 0h20320v20320H0z"/></clipPath></defs><g class="SlideGroup"><g class="Slide" clip-path="url(#a)"><g class="Page"><g class="com.sun.star.drawing.ClosedBezierShape"><path class="BoundingBox" fill="none" d="M127 2640h20067v15051H127z"/><path fill="#89C765" d="M17684 2640H2636c-1386 0-2509 1124-2509 2509v10032c0 1386 1123 2509 2509 2509h15048c1386 0 2509-1123 2509-2509V5149c0-1385-1123-2509-2509-2509zm628 1254l-8152 6271-8152-6271h16304zM1381 15181V5149l5643 4389-5584 6006c-35-115-59-236-59-363zm976 1221l5659-6030 2144 1621 2052-1631 5751 6040c-89 20-15517 20-15606 0zm16581-1221c0 127-24 248-59 363l-5584-6006 5643-4389v10032z"/></g></g></g></g></svg>