<svg xmlns="http://www.w3.org/2000/svg" version="1.2" width="265.096" height="265.096" viewBox="0 0 7014 7014" preserveAspectRatio="xMidYMid" fill-rule="evenodd" stroke-width="28.222" stroke-linejoin="round"><defs class="ClipPathGroup"><clipPath id="a" clipPathUnits="userSpaceOnUse"><path d="M0 0h11750v7062H0z"/></clipPath></defs><g class="SlideGroup"><g class="Slide" clip-path="url(#a)" transform="translate(-22 -22)"><g class="Page"><g class="com.sun.star.drawing.CustomShape"><path class="BoundingBox" fill="none" d="M22 22h7014v7014H22z"/><path d="M758 128c-315 0-630 315-630 630v5540c0 315 315 631 630 631h5540c315 0 631-316 631-631V758c0-315-316-630-631-630zm-630 0zm6801 6801z" fill="#333"/><path d="M758 128c-315 0-630 315-630 630v5540c0 315 315 631 630 631h5540c315 0 631-316 631-631V758c0-315-316-630-631-630z" fill="none" stroke="#579835" stroke-width="212"/></g><path d="M2617.52 1395.983c0-3.841 54.476-106.657 121.057-228.48 66.582-121.823 121.057-225.171 121.057-229.663 0-4.492-198.231-8.71-440.514-9.374-242.283-.663-522.137-4.112-621.898-7.662l-181.383-6.455 1032.723-213.686c567.998-117.527 1012.372-270.37 1021.303-270.331 8.931.045 392.993 161.497 877.416 264.233l931.403 197.531-173.43 1.422c-106.248.871-387.738 11.912-633.72 12.618-245.982.706-447.24 25.095-447.24 29.966 0 4.872 35.391 45.49 102.575 187.188 67.183 141.697 119.642 259.538 116.574 261.868-9.706 7.372-1825.923 18.14-1825.923 10.825z" fill="#d4ff2a"/><g transform="translate(1081.908 1584.95) scale(91.15733)"><path d="M36.985 0H7.963C7.155 0 6.5.655 6.5 1.926V55c0 .345.655 1 1.463 1h40.074c.808 0 1.463-.655 1.463-1V12.978c0-.696-.093-.92-.257-1.085L37.607.257A.884.884 0 0036.985 0z" fill="#e9e9e0"/><circle r="4.569" cy="10.948" cx="18.931" fill="#f3d55b"/><path fill="#26b99a" d="M23.517 18.132L6.5 32.615h43v-11l-10-9.5-10.5 11.5z"/><path d="M48.037 56H7.963A1.463 1.463 0 016.5 54.537V32.615h43v21.922c0 .808-.655 1.463-1.463 1.463z" fill="#14a085"/><path d="M20.272 37.525V48.82c0 .682-.125 1.256-.374 1.721a3.082 3.082 0 01-1.003 1.121c-.42.282-.903.48-1.447.59a8.317 8.317 0 01-1.682.168c-.29 0-.627-.03-1.013-.089a8.608 8.608 0 01-1.2-.275 12.91 12.91 0 01-1.19-.423 4.35 4.35 0 01-.964-.53l1.003-1.594c.13.091.318.187.56.285a8.7 8.7 0 00.798.275c.288.086.59.16.905.226.315.066.61.098.885.098.695 0 1.25-.135 1.662-.403.413-.268.632-.725.66-1.367V37.525zm5.883 14.797h-2.362V37.82h4.17c.616 0 1.226.097 1.83.295a4.974 4.974 0 011.623.885c.479.392.866.869 1.16 1.426.296.556.444 1.182.444 1.879 0 .735-.125 1.4-.374 1.997a4.174 4.174 0 01-1.043 1.506 4.7 4.7 0 01-1.613.944 6.208 6.208 0 01-2.086.333h-1.75v5.236zm0-12.71v5.745h2.164c.288 0 .573-.05.856-.149.282-.097.541-.259.777-.482.236-.223.426-.533.57-.934.144-.4.216-.895.216-1.485 0-.236-.033-.509-.098-.816a2.356 2.356 0 00-.403-.885 2.385 2.385 0 00-.856-.708c-.369-.19-.854-.286-1.456-.286zm20.125 5.232v5.607c-.301.381-.638.69-1.012.934a6.195 6.195 0 01-2.46.934c-.44.069-.874.1-1.308.1a5.95 5.95 0 01-2.39-.472 5.353 5.353 0 01-1.908-1.397c-.544-.617-.971-1.39-1.28-2.321-.307-.931-.461-2.007-.461-3.226 0-1.22.154-2.293.462-3.217.308-.925.734-1.695 1.279-2.31a5.44 5.44 0 011.918-1.408 5.855 5.855 0 012.38-.482c.788 0 1.521.13 2.204.393.682.263 1.29.656 1.829 1.18l-1.634 1.456a2.808 2.808 0 00-1.082-.826 3.24 3.24 0 00-1.26-.256c-.484 0-.947.09-1.386.275-.44.184-.833.495-1.18.934-.349.44-.62 1.006-.816 1.702-.196.697-.302 1.547-.315 2.557.013.985.115 1.836.305 2.557.19.721.452 1.311.787 1.77.335.46.715.8 1.141 1.024.426.223.875.333 1.348.333.144 0 .337-.01.58-.03.242-.02.485-.052.728-.098.242-.046.475-.108.698-.187.223-.079.387-.19.493-.334v-3.58h-2.46v-1.613h4.8z" fill="#fff"/><path fill="#d9d7ca" d="M37.5.151V12h11.849z"/></g></g></g></g></svg>