<svg version="1.2" width="768" height="768" viewBox="0 0 20320 20320" preserveAspectRatio="xMidYMid" fill-rule="evenodd" stroke-width="28.222" stroke-linejoin="round" xmlns="http://www.w3.org/2000/svg"><defs class="ClipPathGroup"><clipPath id="a" clipPathUnits="userSpaceOnUse"><path d="M0 0h20320v20320H0z"/></clipPath></defs><g class="SlideGroup"><g class="Slide" clip-path="url(#a)"><g class="Page"><g class="com.sun.star.drawing.ClosedBezierShape"><path class="BoundingBox" fill="none" d="M4194 292h11732v8492H4194z"/><path fill="#89C765" d="M15925 8783h-1230V6158c0-2543-2092-4635-4635-4635S5425 3615 5425 6158v2625H4194V6158c0-3241 2625-5866 5866-5866 3240 0 5865 2625 5865 5866v2625z"/></g><g class="com.sun.star.drawing.ClosedBezierShape"><path class="BoundingBox" fill="none" d="M2840 8126h14442v11814H2840z"/><path fill="#89C765" d="M15310 19939H4809c-1067 0-1969-903-1969-1969v-7875c0-1067 902-1969 1969-1969h10501c1067 0 1970 902 1970 1969v7875c0 1107-903 1969-1970 1969zM4809 9439c-369 0-656 287-656 656v7875c0 369 287 656 656 656h10501c370 0 657-287 657-656v-7875c0-369-287-656-657-656H4809z"/></g><g class="com.sun.star.drawing.ClosedBezierShape"><path class="BoundingBox" fill="none" d="M8746 10751h2627v2627H8746z"/><path fill="#89C765" d="M11372 12064c0 739-574 1313-1313 1313s-1313-574-1313-1313 574-1313 1313-1313 1313 615 1313 1313z"/></g><g class="com.sun.star.drawing.PolyPolygonShape"><path class="BoundingBox" fill="none" d="M9075 12063h1971v3940H9075z"/><path fill="#89C765" d="M10388 12064h-656l-657 3938h1970l-657-3938z"/></g></g></g></g></svg>