<svg xmlns="http://www.w3.org/2000/svg" version="1.2" width="265.096" height="265.096" viewBox="0 0 7014 7014" preserveAspectRatio="xMidYMid" fill-rule="evenodd" stroke-width="28.222" stroke-linejoin="round"><defs class="ClipPathGroup"><clipPath id="a" clipPathUnits="userSpaceOnUse"><path d="M0 0h11750v7062H0z"/></clipPath></defs><g class="SlideGroup"><g class="Slide" clip-path="url(#a)" transform="translate(-22 -22)"><g class="Page"><g class="com.sun.star.drawing.CustomShape"><path class="BoundingBox" fill="none" d="M22 22h7014v7014H22z"/><path d="M758 128c-315 0-630 315-630 630v5540c0 315 315 631 630 631h5540c315 0 631-316 631-631V758c0-315-316-630-631-630zm-630 0zm6801 6801z" fill="#333"/><path d="M758 128c-315 0-630 315-630 630v5540c0 315 315 631 630 631h5540c315 0 631-316 631-631V758c0-315-316-630-631-630z" fill="none" stroke="#579835" stroke-width="212"/></g><path d="M2090.058 1579.349c-290.49 0-526.956 236.636-526.956 527.115v4048.089c0 290.48 236.466 527.116 526.956 527.116h3095.448c290.49 0 526.956-236.626 526.956-527.116V2825.897s8.288-97.47-34.023-192.317c-39.662-88.907-104.305-150.787-104.305-150.787a86.562 86.562 0 00-.483-.655l-767.992-753.296a86.562 86.562 0 00-1.278-1.276s-65.568-62.436-162.766-104.146c-114.447-49.11-232.41-43.926-232.41-43.926l1.756-.163z" style="line-height:normal;font-variant-ligatures:normal;font-variant-position:normal;font-variant-caps:normal;font-variant-numeric:normal;font-variant-alternates:normal;font-feature-settings:normal;text-indent:0;text-align:start;text-decoration-line:none;text-decoration-style:solid;text-decoration-color:#000;text-transform:none;text-orientation:mixed;white-space:normal;shape-padding:0;isolation:auto;mix-blend-mode:normal;solid-color:#000;solid-opacity:1" color="#000" font-weight="400" font-family="sans-serif" overflow="visible" fill="#ff2116" fill-rule="nonzero" paint-order="markers fill stroke"/><path d="M2090.058 1752.497h2320.907a86.562 86.562 0 001.757 0s92.807.9 160.69 30.03c65.336 28.037 111.664 70.477 111.972 70.762l.32.327 766.075 751.54s46.155 48.727 68.525 98.874c18.056 40.475 19.168 114.528 19.168 114.528a86.562 86.562 0 00-.164 3.672v3332.33c0 197.58-156.226 353.966-353.806 353.966H2090.058c-197.58 0-353.806-156.376-353.806-353.967V2106.471c0-197.59 156.226-353.967 353.806-353.967z" style="line-height:normal;font-variant-ligatures:normal;font-variant-position:normal;font-variant-caps:normal;font-variant-numeric:normal;font-variant-alternates:normal;font-feature-settings:normal;text-indent:0;text-align:start;text-decoration-line:none;text-decoration-style:solid;text-decoration-color:#000;text-transform:none;text-orientation:mixed;white-space:normal;shape-padding:0;isolation:auto;mix-blend-mode:normal;solid-color:#000;solid-opacity:1" color="#000" font-weight="400" font-family="sans-serif" overflow="visible" fill="#f5f5f5" fill-rule="nonzero" paint-order="markers fill stroke"/><path d="M2599.169 4299.73c-119.133-119.133 9.76-282.838 359.556-456.673l220.097-109.38 85.745-187.608c47.16-103.185 117.546-271.548 156.413-374.14l70.669-186.532-48.699-138.044c-59.878-169.737-81.231-424.81-43.24-516.53 51.46-124.235 220.02-111.489 286.752 21.685 52.118 104.008 46.79 292.363-14.99 529.908l-50.648 194.745 44.613 75.735c24.537 41.653 96.209 140.557 159.272 219.785l118.522 147.432 147.485-19.246c468.534-61.14 629.012 42.772 629.012 191.76 0 188.037-367.9 203.557-676.841-13.43-69.513-48.823-117.25-97.323-117.25-97.323s-193.54 39.402-288.832 65.085c-98.36 26.512-147.433 43.115-291.515 91.75 0 0-50.554 73.413-83.496 126.784-122.558 198.56-265.657 363.114-367.853 423.005-114.422 67.056-234.377 71.627-294.772 11.231zm186.96-66.791c66.965-41.388 202.507-201.697 296.332-350.483l37.987-60.24-172.968 86.968c-267.148 134.319-389.362 260.914-325.811 337.488 35.7 43.016 78.408 39.45 164.46-13.733zm1735.274-487.08c65.5-45.878 55.991-138.33-18.06-175.605-57.628-29.009-104.076-34.969-253.784-32.76-91.997 6.273-239.932 24.814-265.004 30.454 0 0 81.27 56.167 117.35 76.812 48.032 27.433 164.753 78.357 249.97 104.442 84.061 25.73 132.685 23.017 169.528-3.345zm-697.731-289.997c-39.64-41.67-107.045-128.641-149.787-193.27-55.901-73.312-83.933-125.035-83.933-125.035s-40.859 131.42-74.38 210.504l-104.58 258.496-30.322 58.634s161.198-52.854 243.213-74.277c86.867-22.69 263.167-57.357 263.167-57.357zm-224.852-901.716c10.11-84.85 14.401-169.573-12.86-212.297-75.616-82.664-166.884-13.729-151.424 182.798 5.201 66.114 21.626 179.132 43.584 248.791l39.923 126.651 28.1-95.39c15.454-52.464 39.159-165.213 52.677-250.553z" fill="#ff2116"/><path d="M2113.847 4877.53h370.392q177.525 0 288.204 33.97 110.68 32.874 186.292 147.937 75.612 113.967 75.612 275.055 0 147.937-61.366 254.233-61.367 106.296-165.471 153.416-103.009 47.12-317.792 47.12h-128.212v584.081h-247.659zm247.659 191.77v521.617h122.733q164.375 0 226.837-61.368 63.559-61.366 63.559-199.44 0-103.01-41.642-166.568-41.641-64.654-92.05-78.9-49.313-15.348-156.704-15.348zm862.42-191.77h336.421q244.372 0 390.117 86.57 146.842 86.57 221.359 257.521 75.612 170.95 75.612 379.158 0 219.167-67.942 391.213-66.845 170.95-206.016 276.15-138.075 105.2-394.5 105.2h-355.05zm247.66 198.344v1099.122h103.007q215.88 0 313.409-149.034 97.529-150.128 97.529-399.979 0-550.109-410.938-550.109zM4485.23 4877.53h830.643v198.344h-582.984v447.1h466.825v198.347H4732.89v652.021h-247.658z" style="line-height:125%;-inkscape-font-specification:'Franklin Gothic Medium Cond'" font-weight="400" font-family="Franklin Gothic Medium Cond" letter-spacing="0" word-spacing="4.26" fill="#2c2c2c"/><path d="M2617.52 1395.983c0-3.841 54.476-106.657 121.057-228.48 66.582-121.823 121.058-225.171 121.058-229.663 0-4.492-198.232-8.71-440.515-9.374-242.283-.663-522.137-4.112-621.898-7.662l-181.383-6.455 1032.723-213.686c567.998-117.527 1012.372-270.371 1021.303-270.332 8.931.046 392.993 161.498 877.416 264.234l931.403 197.53-173.43 1.423c-106.247.871-387.738 11.912-633.72 12.618-245.982.706-447.24 25.095-447.24 29.966 0 4.872 35.391 45.49 102.575 187.188 67.183 141.697 119.642 259.538 116.574 261.868-9.706 7.372-1825.923 18.139-1825.923 10.825z" fill="#d4ff2a"/></g></g></g></svg>