<svg version="1.2" width="10mm" height="10mm" viewBox="0 0 1250 1250" preserveAspectRatio="xMidYMid" fill-rule="evenodd" stroke-width="28.222" stroke-linejoin="round" xmlns="http://www.w3.org/2000/svg"><defs class="ClipPathGroup"><clipPath id="a" clipPathUnits="userSpaceOnUse"><path d="M0 0h1250v1250H0z"/></clipPath></defs><g class="SlideGroup"><g class="Slide" clip-path="url(#a)"><g class="Page"><g class="com.sun.star.drawing.PolyPolygonShape"><path class="BoundingBox" fill="none" d="M0 0h1253v1253H0z"/></g><g class="com.sun.star.drawing.PolyPolygonShape"><path class="BoundingBox" fill="none" d="M0 0h1252v1252H0z"/><path fill="#151515" d="M626 1251H0V0h1251v1251H626z"/></g><g class="com.sun.star.drawing.PolyPolygonShape"><path class="BoundingBox" fill="none" d="M41 44h793v793H41z"/></g><g class="com.sun.star.drawing.PolyPolygonShape"><path class="BoundingBox" fill="none" d="M41 45h790v789H41z"/><path fill="#F2FAFF" d="M436 833H42V45h788v788H436z"/></g><g class="com.sun.star.drawing.PolyPolygonShape"><path class="BoundingBox" fill="none" d="M27 30h824v823H27z"/></g><g class="com.sun.star.drawing.PolyPolygonShape"><path class="BoundingBox" fill="none" d="M27 30h821v821H27z"/><path fill="#788B9C" d="M815 62v756H59V62h756zm32-32H27v820h820V30z"/></g><g class="com.sun.star.drawing.PolyPolygonShape"><path class="BoundingBox" fill="none" d="M419 422h793v792H419z"/></g><g class="com.sun.star.drawing.PolyPolygonShape"><path class="BoundingBox" fill="none" d="M419 422h790v790H419z"/><path fill="#8BB7F0" d="M420 1211V824l401-401h387v788H420z"/></g><g class="com.sun.star.drawing.PolyPolygonShape"><path class="BoundingBox" fill="none" d="M404 406h823v823H404z"/></g><g class="com.sun.star.drawing.PolyPolygonShape"><path class="BoundingBox" fill="none" d="M405 407h821v821H405z"/><path fill="#4E7AB5" d="M1193 439v756H437V830l391-391h365zm32-32H815L405 817v410h820V407z"/></g><g class="com.sun.star.drawing.PolyPolygonShape"><path class="BoundingBox" fill="none" d="M709 879h240v99H709z"/></g><g class="com.sun.star.drawing.PolyPolygonShape"><path class="BoundingBox" fill="none" d="M710 880h238v96H710z"/><path fill="#FFF" d="M829 975H710v-95h237v95H829z"/></g><g class="com.sun.star.drawing.PolyPolygonShape"><path class="BoundingBox" fill="none" d="M606 628h445v445H606z"/></g><g class="com.sun.star.drawing.PolyPolygonShape"><path class="BoundingBox" fill="none" d="M607 628h443v443H607z"/><path fill="#FFF" d="M889 628H770l-163 442h105l114-358h4l113 358h106L889 628z"/></g><g class="com.sun.star.drawing.PolyPolygonShape"><path class="BoundingBox" fill="none" d="M215 273h446v84H215z"/></g><g class="com.sun.star.drawing.LineShape"><path class="BoundingBox" fill="none" d="M216 273h442v81H216z"/><path fill="none" stroke="#788B9C" stroke-width="80" stroke-linejoin="miter" d="M216 313h441"/></g><g class="com.sun.star.drawing.PolyPolygonShape"><path class="BoundingBox" fill="none" d="M396 187h85v130h-85z"/></g><g class="com.sun.star.drawing.LineShape"><path class="BoundingBox" fill="none" d="M396 187h81v127h-81z"/><path fill="none" stroke="#788B9C" stroke-width="80" stroke-linejoin="miter" d="M436 187v126"/></g><g class="com.sun.star.drawing.PolyPolygonShape"><path class="BoundingBox" fill="none" d="M216 303h420v368H216z"/></g><g class="com.sun.star.drawing.OpenBezierShape"><path class="BoundingBox" fill="none" d="M215 303h420v367H215z"/><path fill="none" stroke="#788B9C" stroke-width="80" stroke-linejoin="miter" d="M595 313s-75 316-379 316"/></g><g class="com.sun.star.drawing.PolyPolygonShape"><path class="BoundingBox" fill="none" d="M245 384h321v224H245z"/></g><g class="com.sun.star.drawing.OpenBezierShape"><path class="BoundingBox" fill="none" d="M246 384h318v222H246z"/><path fill="none" stroke="#788B9C" stroke-width="80" stroke-linejoin="miter" d="M279 407s109 158 284 158"/></g></g></g></g></svg>