<svg version="1.2" width="768" height="768" viewBox="0 0 20320 20320" preserveAspectRatio="xMidYMid" fill-rule="evenodd" stroke-width="28.222" stroke-linejoin="round" xmlns="http://www.w3.org/2000/svg"><defs class="ClipPathGroup"><clipPath id="a" clipPathUnits="userSpaceOnUse"><path d="M0 0h20320v20320H0z"/></clipPath></defs><g class="SlideGroup"><g class="Slide" clip-path="url(#a)"><g class="Page"><g class="com.sun.star.drawing.ClosedBezierShape"><path class="BoundingBox" fill="none" d="M5129 299h9608v9680H5129z"/><path fill="#89C765" d="M9933 9905c-2649 0-4803-2154-4803-4802 0-2649 2154-4803 4803-4803 2648 0 4802 2154 4802 4803 0 2647-2154 4802-4802 4802zm0-8656c-2125 0-3854 1729-3854 3853 0 2125 1729 3854 3854 3854 2124 0 3853-1729 3853-3853 0-2125-1729-3854-3853-3854zM6254 9355l-1 1c-4 2-7 3-10 5 282 245 539 429 861 616l14-6c-323-187-582-372-864-616zm6493 616c5 2 10 4 14 6 322-188 579-371 861-616-3-2-7-4-11-6-282 244-541 428-864 616z"/></g><g class="com.sun.star.drawing.ClosedBezierShape"><path class="BoundingBox" fill="none" d="M2471 9360h14925v7551H2471z"/><path fill="#89C765" d="M14391 9865c-250-187-470-332-740-488-10-5-19-11-29-16-282 244-539 428-861 616 148 72 271 137 414 220 162 93 296 178 450 284 1702 1177 2820 3155 2820 5376 0 49-3 15-3 163H3424c-1-148-4-114-4-163 0-2221 1118-4192 2820-5368 274-189 562-363 865-509-323-188-580-373-861-618-14 7-24 14-37 21-267 154-485 298-732 483-1822 1362-3004 3533-3004 5977 0 50 3 113 4 162 6 320 26 589 70 905h14775c41-296 65-603 71-905 1-50 4-105 4-155 0-2444-1183-4623-3004-5985z"/></g><g class="com.sun.star.drawing.ClosedBezierShape"><path class="BoundingBox" fill="none" d="M5129 299h9608v9608H5129z"/><path fill="#89C765" d="M9933 9905c2648 0 4802-2155 4802-4802 0-2649-2154-4803-4802-4803-2649 0-4803 2154-4803 4803 0 2648 2154 4802 4803 4802zm0-8656c2124 0 3853 1729 3853 3854 0 2124-1729 3853-3853 3853-2125 0-3854-1729-3854-3854 0-2124 1729-3853 3854-3853z"/></g></g></g></g></svg>